G04*
G04 #@! TF.GenerationSoftware,Altium Limited,Altium Designer,24.0.1 (36)*
G04*
G04 Layer_Color=16711935*
%FSLAX44Y44*%
%MOMM*%
G71*
G04*
G04 #@! TF.SameCoordinates,FD3C0853-ED46-42AC-B4CA-2F3423561DDA*
G04*
G04*
G04 #@! TF.FilePolarity,Negative*
G04*
G01*
G75*
%ADD35C,1.4000*%
%ADD36R,1.4000X1.4000*%
%ADD37C,1.1500*%
G04:AMPARAMS|DCode=38|XSize=2.1mm|YSize=2.1mm|CornerRadius=0.5625mm|HoleSize=0mm|Usage=FLASHONLY|Rotation=0.000|XOffset=0mm|YOffset=0mm|HoleType=Round|Shape=RoundedRectangle|*
%AMROUNDEDRECTD38*
21,1,2.1000,0.9750,0,0,0.0*
21,1,0.9750,2.1000,0,0,0.0*
1,1,1.1250,0.4875,-0.4875*
1,1,1.1250,-0.4875,-0.4875*
1,1,1.1250,-0.4875,0.4875*
1,1,1.1250,0.4875,0.4875*
%
%ADD38ROUNDEDRECTD38*%
%ADD39C,2.1000*%
%ADD40C,3.1500*%
%ADD41C,2.1500*%
%ADD42R,2.1500X2.1500*%
%ADD43C,2.0000*%
%ADD44C,3.0500*%
%ADD45C,0.7500*%
%ADD46C,0.8612*%
D35*
X405580Y955710D02*
D03*
Y930710D02*
D03*
Y905710D02*
D03*
Y703110D02*
D03*
Y728110D02*
D03*
Y753110D02*
D03*
D36*
Y880710D02*
D03*
Y778110D02*
D03*
D37*
X846910Y694210D02*
D03*
Y644210D02*
D03*
D38*
X952500Y684530D02*
D03*
D39*
X1002500D02*
D03*
D40*
X489340Y1095600D02*
D03*
X734440D02*
D03*
Y626100D02*
D03*
X489340D02*
D03*
D41*
X739140Y660400D02*
D03*
Y685800D02*
D03*
Y711200D02*
D03*
Y736600D02*
D03*
Y762000D02*
D03*
Y787400D02*
D03*
Y812800D02*
D03*
Y838200D02*
D03*
Y863600D02*
D03*
Y889000D02*
D03*
Y914400D02*
D03*
Y939800D02*
D03*
Y965200D02*
D03*
Y990600D02*
D03*
Y1016000D02*
D03*
X485140Y660400D02*
D03*
Y685800D02*
D03*
Y711200D02*
D03*
Y736600D02*
D03*
Y762000D02*
D03*
Y787400D02*
D03*
Y812800D02*
D03*
Y838200D02*
D03*
Y863600D02*
D03*
Y889000D02*
D03*
Y914400D02*
D03*
Y939800D02*
D03*
Y965200D02*
D03*
Y990600D02*
D03*
D42*
Y1016000D02*
D03*
D43*
X941070Y1084580D02*
D03*
X915670D02*
D03*
X853440Y1087120D02*
D03*
X828040D02*
D03*
D44*
X384810Y1113790D02*
D03*
Y607060D02*
D03*
X1024890D02*
D03*
X1026160Y1113790D02*
D03*
D45*
X845820Y960120D02*
D03*
D46*
X918210Y980440D02*
D03*
M02*
