G04*
G04 #@! TF.GenerationSoftware,Altium Limited,Altium Designer,24.0.1 (36)*
G04*
G04 Layer_Color=8388736*
%FSLAX44Y44*%
%MOMM*%
G71*
G04*
G04 #@! TF.SameCoordinates,FD3C0853-ED46-42AC-B4CA-2F3423561DDA*
G04*
G04*
G04 #@! TF.FilePolarity,Negative*
G04*
G01*
G75*
%ADD18R,1.4562X1.3046*%
%ADD21R,1.0043X0.8721*%
G04:AMPARAMS|DCode=22|XSize=1.0043mm|YSize=0.8721mm|CornerRadius=0.4361mm|HoleSize=0mm|Usage=FLASHONLY|Rotation=0.000|XOffset=0mm|YOffset=0mm|HoleType=Round|Shape=RoundedRectangle|*
%AMROUNDEDRECTD22*
21,1,1.0043,0.0000,0,0,0.0*
21,1,0.1322,0.8721,0,0,0.0*
1,1,0.8721,0.0661,0.0000*
1,1,0.8721,-0.0661,0.0000*
1,1,0.8721,-0.0661,0.0000*
1,1,0.8721,0.0661,0.0000*
%
%ADD22ROUNDEDRECTD22*%
G04:AMPARAMS|DCode=23|XSize=1.0043mm|YSize=3.1821mm|CornerRadius=0.4369mm|HoleSize=0mm|Usage=FLASHONLY|Rotation=0.000|XOffset=0mm|YOffset=0mm|HoleType=Round|Shape=RoundedRectangle|*
%AMROUNDEDRECTD23*
21,1,1.0043,2.3084,0,0,0.0*
21,1,0.1306,3.1821,0,0,0.0*
1,1,0.8737,0.0653,-1.1542*
1,1,0.8737,-0.0653,-1.1542*
1,1,0.8737,-0.0653,1.1542*
1,1,0.8737,0.0653,1.1542*
%
%ADD23ROUNDEDRECTD23*%
%ADD24R,1.3046X1.4562*%
%ADD26R,0.9500X1.4500*%
%ADD27R,1.4000X1.0000*%
%ADD29R,2.3500X2.3500*%
%ADD30R,1.5500X1.7000*%
%ADD31R,1.7500X2.7500*%
%ADD32R,1.5000X1.7000*%
%ADD33R,1.0500X1.1000*%
%ADD34R,1.7000X1.5000*%
%ADD35C,1.4000*%
%ADD36R,1.4000X1.4000*%
%ADD37C,1.1500*%
G04:AMPARAMS|DCode=38|XSize=2.1mm|YSize=2.1mm|CornerRadius=0.5625mm|HoleSize=0mm|Usage=FLASHONLY|Rotation=0.000|XOffset=0mm|YOffset=0mm|HoleType=Round|Shape=RoundedRectangle|*
%AMROUNDEDRECTD38*
21,1,2.1000,0.9750,0,0,0.0*
21,1,0.9750,2.1000,0,0,0.0*
1,1,1.1250,0.4875,-0.4875*
1,1,1.1250,-0.4875,-0.4875*
1,1,1.1250,-0.4875,0.4875*
1,1,1.1250,0.4875,0.4875*
%
%ADD38ROUNDEDRECTD38*%
%ADD39C,2.1000*%
%ADD40C,3.1500*%
%ADD41C,2.1500*%
%ADD42R,2.1500X2.1500*%
%ADD43C,2.0000*%
%ADD44C,3.0500*%
%ADD45C,0.7500*%
%ADD46C,0.8612*%
D18*
X892810Y926224D02*
D03*
Y942340D02*
D03*
D21*
X956310Y944920D02*
D03*
D22*
Y922020D02*
D03*
Y899120D02*
D03*
D23*
X1022210Y922020D02*
D03*
D24*
X1015168Y824230D02*
D03*
X999052D02*
D03*
D26*
X828490Y768350D02*
D03*
X808990D02*
D03*
D27*
X945720Y806450D02*
D03*
X923720Y796950D02*
D03*
Y815950D02*
D03*
D29*
X889910Y709210D02*
D03*
X803910D02*
D03*
Y664210D02*
D03*
X889910D02*
D03*
D30*
X964590Y767080D02*
D03*
X983590D02*
D03*
X845210Y1000760D02*
D03*
X864210D02*
D03*
X875690Y754380D02*
D03*
X894690D02*
D03*
X916330Y1000760D02*
D03*
X935330D02*
D03*
D31*
X820420Y929860D02*
D03*
Y893860D02*
D03*
D32*
X408080Y1028700D02*
D03*
X427580D02*
D03*
D33*
X882650Y876300D02*
D03*
X914150D02*
D03*
D34*
X864870Y809810D02*
D03*
Y829310D02*
D03*
X817880Y823370D02*
D03*
Y842870D02*
D03*
D35*
X405580Y955710D02*
D03*
Y930710D02*
D03*
Y905710D02*
D03*
Y703110D02*
D03*
Y728110D02*
D03*
Y753110D02*
D03*
D36*
Y880710D02*
D03*
Y778110D02*
D03*
D37*
X846910Y694210D02*
D03*
Y644210D02*
D03*
D38*
X952500Y684530D02*
D03*
D39*
X1002500D02*
D03*
D40*
X489340Y1095600D02*
D03*
X734440D02*
D03*
Y626100D02*
D03*
X489340D02*
D03*
D41*
X739140Y660400D02*
D03*
Y685800D02*
D03*
Y711200D02*
D03*
Y736600D02*
D03*
Y762000D02*
D03*
Y787400D02*
D03*
Y812800D02*
D03*
Y838200D02*
D03*
Y863600D02*
D03*
Y889000D02*
D03*
Y914400D02*
D03*
Y939800D02*
D03*
Y965200D02*
D03*
Y990600D02*
D03*
Y1016000D02*
D03*
X485140Y660400D02*
D03*
Y685800D02*
D03*
Y711200D02*
D03*
Y736600D02*
D03*
Y762000D02*
D03*
Y787400D02*
D03*
Y812800D02*
D03*
Y838200D02*
D03*
Y863600D02*
D03*
Y889000D02*
D03*
Y914400D02*
D03*
Y939800D02*
D03*
Y965200D02*
D03*
Y990600D02*
D03*
D42*
Y1016000D02*
D03*
D43*
X941070Y1084580D02*
D03*
X915670D02*
D03*
X853440Y1087120D02*
D03*
X828040D02*
D03*
D44*
X384810Y1113790D02*
D03*
Y607060D02*
D03*
X1024890D02*
D03*
X1026160Y1113790D02*
D03*
D45*
X845820Y960120D02*
D03*
D46*
X918210Y980440D02*
D03*
M02*
