G04*
G04 #@! TF.GenerationSoftware,Altium Limited,Altium Designer,24.0.1 (36)*
G04*
G04 Layer_Color=65535*
%FSLAX44Y44*%
%MOMM*%
G71*
G04*
G04 #@! TF.SameCoordinates,FD3C0853-ED46-42AC-B4CA-2F3423561DDA*
G04*
G04*
G04 #@! TF.FilePolarity,Positive*
G04*
G01*
G75*
%ADD10C,0.2500*%
%ADD11C,0.2000*%
%ADD12C,0.1500*%
%ADD13C,0.1270*%
%ADD14C,0.2032*%
%ADD15R,0.5080X1.5870*%
D10*
X406580Y847960D02*
G03*
X406580Y847960I-1250J0D01*
G01*
X407080Y810860D02*
G03*
X407080Y810860I-1250J0D01*
G01*
X957560Y957020D02*
G03*
X957560Y957020I-1250J0D01*
G01*
D11*
X464640Y1016000D02*
G03*
X464640Y1016000I-1000J0D01*
G01*
X373580Y980710D02*
X437580D01*
X373580Y855710D02*
Y980710D01*
Y855710D02*
X437580D01*
Y980710D01*
X886910Y629210D02*
Y650210D01*
Y678210D02*
Y695210D01*
X806910Y678210D02*
Y695210D01*
Y629210D02*
X886910D01*
X817910Y722210D02*
X875910D01*
X806910Y629210D02*
Y650210D01*
X927500Y644530D02*
Y719530D01*
X1027500Y644530D02*
Y719530D01*
X927500D02*
X1027500D01*
X927500Y644530D02*
X1027500D01*
X904091Y919701D02*
Y948863D01*
X881529Y919701D02*
Y948863D01*
X842920Y889360D02*
Y926360D01*
X831420Y934360D02*
X834920D01*
X842920Y926360D01*
X831420Y889360D02*
X842920D01*
X797920D02*
X809420D01*
X797920Y926360D02*
X805920Y934360D01*
X809420D01*
X797920Y889360D02*
Y926360D01*
X373580Y678110D02*
X437580D01*
Y803110D01*
X373580D02*
X437580D01*
X373580Y678110D02*
Y803110D01*
X971735Y954545D02*
X1006785D01*
Y889495D02*
Y954545D01*
X971735Y889495D02*
X1006785D01*
X971735D02*
Y954545D01*
X992529Y835511D02*
X1021691D01*
X992529Y812949D02*
X1021691D01*
X904750Y868550D02*
Y884050D01*
X892050Y868550D02*
X904750D01*
X892050Y884050D02*
X904750D01*
X817490Y761350D02*
X819990D01*
X817490Y775350D02*
X819990D01*
X927120Y805700D02*
Y807200D01*
X934470Y791250D02*
X942320D01*
Y815200D02*
Y821650D01*
Y791250D02*
Y797700D01*
X934470Y821650D02*
X942320D01*
X901120Y1068580D02*
Y1100580D01*
X813490Y1071120D02*
Y1103120D01*
D12*
X960370Y1084580D02*
G03*
X960370Y1084580I-32000J0D01*
G01*
X872740Y1087120D02*
G03*
X872740Y1087120I-32000J0D01*
G01*
D13*
X699940Y606100D02*
X754440D01*
X469340D02*
X523040D01*
X754440D02*
Y1115600D01*
X469340Y606100D02*
Y1115600D01*
X647140D02*
X754440D01*
X469340D02*
X580030D01*
X469340Y606100D02*
Y1115600D01*
X754440D01*
X469340Y606100D02*
X754440D01*
Y1115600D01*
D14*
X380405Y999995D02*
X377020D01*
X378712D01*
Y991531D01*
X377020Y989838D01*
X375327D01*
X373634Y991531D01*
X383791Y989838D02*
X387176D01*
X385484D01*
Y999995D01*
X383791Y998302D01*
X812377Y741678D02*
X808992D01*
X810684D01*
Y733214D01*
X808992Y731522D01*
X807299D01*
X805606Y733214D01*
X815763Y739986D02*
X817456Y741678D01*
X820841D01*
X822534Y739986D01*
Y738293D01*
X820841Y736600D01*
X819148D01*
X820841D01*
X822534Y734907D01*
Y733214D01*
X820841Y731522D01*
X817456D01*
X815763Y733214D01*
X948267Y740408D02*
X944882D01*
X946574D01*
Y731944D01*
X944882Y730252D01*
X943189D01*
X941496Y731944D01*
X956731Y730252D02*
Y740408D01*
X951653Y735330D01*
X958424D01*
X970706Y786132D02*
Y796288D01*
X975784D01*
X977477Y794596D01*
Y791210D01*
X975784Y789517D01*
X970706D01*
X974092D02*
X977477Y786132D01*
X985941D02*
Y796288D01*
X980863Y791210D01*
X987634D01*
X833546Y1019812D02*
Y1029968D01*
X838624D01*
X840317Y1028276D01*
Y1024890D01*
X838624Y1023197D01*
X833546D01*
X836932D02*
X840317Y1019812D01*
X843703Y1028276D02*
X845396Y1029968D01*
X848781D01*
X850474Y1028276D01*
Y1026583D01*
X848781Y1024890D01*
X850474Y1023197D01*
Y1021504D01*
X848781Y1019812D01*
X845396D01*
X843703Y1021504D01*
Y1023197D01*
X845396Y1024890D01*
X843703Y1026583D01*
Y1028276D01*
X845396Y1024890D02*
X848781D01*
X887307Y968586D02*
X885614Y970278D01*
X882229D01*
X880536Y968586D01*
Y961814D01*
X882229Y960122D01*
X885614D01*
X887307Y961814D01*
X897464Y960122D02*
X890693D01*
X897464Y966893D01*
Y968586D01*
X895771Y970278D01*
X892386D01*
X890693Y968586D01*
X798407Y966046D02*
X796714Y967738D01*
X793329D01*
X791636Y966046D01*
Y959274D01*
X793329Y957582D01*
X796714D01*
X798407Y959274D01*
X801793Y966046D02*
X803486Y967738D01*
X806871D01*
X808564Y966046D01*
Y964353D01*
X806871Y962660D01*
X805178D01*
X806871D01*
X808564Y960967D01*
Y959274D01*
X806871Y957582D01*
X803486D01*
X801793Y959274D01*
X816713Y950213D02*
X825420D01*
X821067Y945860D02*
Y954567D01*
X398018Y1049020D02*
Y1059177D01*
X403096D01*
X404789Y1057484D01*
Y1054098D01*
X403096Y1052406D01*
X398018D01*
X401404D02*
X404789Y1049020D01*
X408175D02*
X411560D01*
X409868D01*
Y1059177D01*
X408175Y1057484D01*
X380405Y830577D02*
X377020D01*
X378712D01*
Y822113D01*
X377020Y820420D01*
X375327D01*
X373634Y822113D01*
X390562Y820420D02*
X383791D01*
X390562Y827191D01*
Y828884D01*
X388869Y830577D01*
X385484D01*
X383791Y828884D01*
X951230Y976881D02*
Y968417D01*
X952923Y966724D01*
X956308D01*
X958001Y968417D01*
Y976881D01*
X968158Y966724D02*
X961387D01*
X968158Y973495D01*
Y975188D01*
X966465Y976881D01*
X963080D01*
X961387Y975188D01*
X997879Y851998D02*
X996186Y853691D01*
X992801D01*
X991108Y851998D01*
Y845227D01*
X992801Y843534D01*
X996186D01*
X997879Y845227D01*
X1001265Y843534D02*
X1004650D01*
X1002958D01*
Y853691D01*
X1001265Y851998D01*
X878840Y902459D02*
Y892302D01*
X883918D01*
X885611Y893995D01*
Y900766D01*
X883918Y902459D01*
X878840D01*
X888997Y892302D02*
X892382D01*
X890689D01*
Y902459D01*
X888997Y900766D01*
X804164Y784606D02*
Y794763D01*
X809242D01*
X810935Y793070D01*
Y789684D01*
X809242Y787992D01*
X804164D01*
X807550D02*
X810935Y784606D01*
X821092D02*
X814321D01*
X821092Y791377D01*
Y793070D01*
X819399Y794763D01*
X816013D01*
X814321Y793070D01*
X923457Y832527D02*
Y839298D01*
X921764Y840991D01*
X918379D01*
X916686Y839298D01*
Y832527D01*
X918379Y830834D01*
X921764D01*
X920072Y834220D02*
X923457Y830834D01*
X921764D02*
X923457Y832527D01*
X926843Y830834D02*
X930228D01*
X928536D01*
Y840991D01*
X926843Y839298D01*
X865378Y774700D02*
Y784857D01*
X870456D01*
X872149Y783164D01*
Y779778D01*
X870456Y778086D01*
X865378D01*
X868764D02*
X872149Y774700D01*
X875535Y783164D02*
X877227Y784857D01*
X880613D01*
X882306Y783164D01*
Y781471D01*
X880613Y779778D01*
X878920D01*
X880613D01*
X882306Y778086D01*
Y776393D01*
X880613Y774700D01*
X877227D01*
X875535Y776393D01*
X853694Y848360D02*
Y858517D01*
X858772D01*
X860465Y856824D01*
Y853438D01*
X858772Y851746D01*
X853694D01*
X857080D02*
X860465Y848360D01*
X870622Y858517D02*
X863851D01*
Y853438D01*
X867236Y855131D01*
X868929D01*
X870622Y853438D01*
Y850053D01*
X868929Y848360D01*
X865544D01*
X863851Y850053D01*
X806704Y862076D02*
Y872233D01*
X811782D01*
X813475Y870540D01*
Y867154D01*
X811782Y865462D01*
X806704D01*
X810090D02*
X813475Y862076D01*
X823632Y872233D02*
X820246Y870540D01*
X816861Y867154D01*
Y863769D01*
X818553Y862076D01*
X821939D01*
X823632Y863769D01*
Y865462D01*
X821939Y867154D01*
X816861D01*
X463550Y1135631D02*
Y1127167D01*
X465243Y1125474D01*
X468628D01*
X470321Y1127167D01*
Y1135631D01*
X473707Y1125474D02*
X477092D01*
X475400D01*
Y1135631D01*
X473707Y1133938D01*
X897636Y1134615D02*
Y1124458D01*
X902714D01*
X904407Y1126151D01*
Y1132922D01*
X902714Y1134615D01*
X897636D01*
X914564Y1124458D02*
X907793D01*
X914564Y1131229D01*
Y1132922D01*
X912871Y1134615D01*
X909485D01*
X907793Y1132922D01*
X906018Y1021080D02*
Y1031237D01*
X911096D01*
X912789Y1029544D01*
Y1026158D01*
X911096Y1024466D01*
X906018D01*
X909404D02*
X912789Y1021080D01*
X916175Y1031237D02*
X922946D01*
Y1029544D01*
X916175Y1022773D01*
Y1021080D01*
X810006Y1137155D02*
Y1126998D01*
X815084D01*
X816777Y1128691D01*
Y1135462D01*
X815084Y1137155D01*
X810006D01*
X820163Y1135462D02*
X821855Y1137155D01*
X825241D01*
X826934Y1135462D01*
Y1133769D01*
X825241Y1132076D01*
X823548D01*
X825241D01*
X826934Y1130384D01*
Y1128691D01*
X825241Y1126998D01*
X821855D01*
X820163Y1128691D01*
D15*
X902210Y875985D02*
D03*
M02*
