M48
;Layer_Color=9474304
;FILE_FORMAT=4:4
METRIC,LZ
;TYPE=PLATED
T01F00S00C0.3000
T02F00S00C0.7112
T03F00S00C0.9000
T04F00S00C1.0000
T05F00S00C1.0200
T06F00S00C1.3000
T07F00S00C2.6000
;TYPE=NON_PLATED
T08F00S00C1.0000
T09F00S00C3.0000
%
T01
X0084582Y0096012
T02
X0091821Y0098044
T03
X0040558Y0070311
Y0072811
Y0075311
Y0077811
Y0088071
Y0090571
Y0093071
Y0095571
T04
X0082804Y0108712
X0085344
X0091567Y0108458
X0094107
T05
X0048514Y006604
Y006858
Y007112
Y007366
Y00762
Y007874
X0073914
Y00762
Y007366
Y007112
Y006858
Y006604
Y008128
Y008382
Y008636
Y00889
Y009144
Y009398
Y009652
Y009906
Y01016
X0048514
Y009906
Y009652
Y009398
Y009144
Y00889
Y008636
Y008382
Y008128
T06
X009525Y0068453
X010025
T07
X0102489Y0060706
X0038481
Y0111379
X0102616
T08
X0084691Y0064421
Y0069421
T09
X0048934Y006261
X0073444
Y010956
X0048934
M30
